<svg width="100%" height="100%" viewBox="0 0 36 36" fill="none" xmlns="http://www.w3.org/2000/svg">
<path d="M17.751 5.00781C17.27 6.07342 17 7.25493 17 8.5C17 13.1944 20.8056 17 25.5 17C26.012 17 26.5129 16.952 27 16.8652V24.0078C27 26.8078 26.9999 28.2078 26.4551 29.2773C25.9757 30.2182 25.2103 30.9835 24.2695 31.4629C23.2 32.0077 21.8 32.0078 19 32.0078H15C12.2 32.0078 10.8 32.0077 9.73047 31.4629C8.78966 30.9835 8.02429 30.2182 7.54492 29.2773C7.00013 28.2078 7 26.8078 7 24.0078V13.0078C7 10.2079 7.00013 8.8078 7.54492 7.73828C8.02429 6.79747 8.78966 6.0321 9.73047 5.55273C10.8 5.00795 12.2 5.00781 15 5.00781H17.751Z" fill="currentColor"/>
<path d="M27.3105 13.4326C26.6192 13.7937 25.834 14 25 14C22.2386 14 20 11.7614 20 9C20 8.16555 20.2049 7.37912 20.5664 6.6875L27.3105 13.4326ZM25 4C27.7614 4 30 6.23858 30 9C30 9.8343 29.794 10.62 29.4326 11.3115L22.6875 4.56641C23.3791 4.20493 24.1656 4 25 4Z" fill="currentColor"/>
</svg>
