<svg width="100%" height="100%" viewBox="0 0 36 36" fill="none" xmlns="http://www.w3.org/2000/svg">
<path d="M19.2002 4C23.6805 4 25.9206 4.00015 27.6318 4.87207C29.1371 5.63906 30.3609 6.86287 31.1279 8.36816C31.9999 10.0794 32 12.3195 32 16.7998V28.7998C32 29.9199 32.0002 30.4804 31.7822 30.9082C31.5905 31.2845 31.2845 31.5905 30.9082 31.7822C30.4804 32.0002 29.9199 32 28.7998 32H16.7998C12.3195 32 10.0794 31.9999 8.36816 31.1279C6.86287 30.3609 5.63906 29.1371 4.87207 27.6318C4.00015 25.9206 4 23.6805 4 19.2002V12C4 9.20005 4.00013 7.79998 4.54492 6.73047C5.02429 5.78966 5.78966 5.02429 6.73047 4.54492C7.79998 4.00013 9.20005 4 12 4H19.2002ZM21 25C19.8954 25 19 25.8954 19 27C19 28.1046 19.8954 29 21 29H29V28.2002C29 27.0801 29.0002 26.5196 28.7822 26.0918C28.5905 25.7155 28.2845 25.4095 27.9082 25.2178C27.4804 24.9998 26.9199 25 25.7998 25H21ZM10.2002 19C9.08009 19 8.51962 18.9998 8.0918 19.2178C7.71554 19.4095 7.40951 19.7155 7.21777 20.0918C6.99979 20.5196 7 21.0801 7 22.2002V23H15C16.1046 23 17 22.1046 17 21C17 19.8954 16.1046 19 15 19H10.2002ZM10.2002 13C9.08009 13 8.51962 12.9998 8.0918 13.2178C7.71554 13.4095 7.40951 13.7155 7.21777 14.0918C6.99979 14.5196 7 15.0801 7 16.2002V17H18C19.1046 17 20 16.1046 20 15C20 13.8954 19.1046 13 18 13H10.2002ZM10.2002 7C9.08009 7 8.51962 6.99979 8.0918 7.21777C7.71554 7.40951 7.40951 7.71554 7.21777 8.0918C6.99979 8.51962 7 9.08009 7 10.2002V11H12C13.1046 11 14 10.1046 14 9C14 7.89543 13.1046 7 12 7H10.2002Z" fill="currentColor"/>
</svg>
