<svg width="100%" height="100%" viewBox="0 0 36 36" fill="none" xmlns="http://www.w3.org/2000/svg">
<path d="M7.58761 10.0739L16.3876 4.94056L16.3876 4.94055C16.9747 4.59809 17.2683 4.42685 17.5807 4.35986C17.8571 4.30059 18.1429 4.30059 18.4193 4.35986C18.7317 4.42685 19.0253 4.59809 19.6124 4.94056L25.2616 8.23591C26.8187 9.14422 27.5972 9.59838 27.8593 10.1898C28.0879 10.7057 28.0879 11.2943 27.8593 11.8102C27.5972 12.4016 26.8187 12.8558 25.2616 13.7641L25.2616 13.7641L19.5876 17.0739C19.0091 17.4114 18.7198 17.5801 18.5095 17.8151C18.3234 18.0231 18.1829 18.2677 18.0971 18.5333C18 18.8333 18 19.1682 18 19.838V25.4287C18 27.2557 18 28.1693 17.6165 28.6957C17.2819 29.1548 16.768 29.45 16.2028 29.5076C15.5549 29.5737 14.7658 29.1134 13.1876 28.1928L7.58761 24.9261C7.00909 24.5886 6.71983 24.4199 6.50952 24.1849C6.32344 23.9769 6.18294 23.7323 6.09706 23.4667C6 23.1667 6 22.8318 6 22.162V12.838C6 12.1682 6 11.8333 6.09706 11.5333C6.18294 11.2677 6.32344 11.0231 6.50952 10.8151C6.71983 10.5801 7.00909 10.4114 7.58761 10.0739Z" fill="currentColor"/>
<path d="M28.2041 14.9251C26.0609 16.219 23.32 17.844 21.9076 18.5906C21.4193 18.8487 21.0001 19.4477 21.0001 20L21 28.1878C21 28.9749 21.8673 29.4534 22.5332 29.0338L29.2606 24.7942C29.5511 24.6111 29.7274 24.2917 29.7274 23.9482V15.7831C29.7274 15.0021 28.8726 14.5214 28.2041 14.9251Z" fill="currentColor"/>
</svg>
