<svg width="100%" height="100%" viewBox="0 0 36 36" fill="none" xmlns="http://www.w3.org/2000/svg">
<path d="M24 4C26.8 4 28.2 4.00013 29.2695 4.54492C30.2103 5.02429 30.9757 5.78966 31.4551 6.73047C31.9999 7.79998 32 9.20005 32 12V24C32 26.8 31.9999 28.2 31.4551 29.2695C30.9757 30.2103 30.2103 30.9757 29.2695 31.4551C28.2 31.9999 26.8 32 24 32H12C9.20005 32 7.79998 31.9999 6.73047 31.4551C5.78966 30.9757 5.02429 30.2103 4.54492 29.2695C4.00013 28.2 4 26.8 4 24V12C4 9.20005 4.00013 7.79998 4.54492 6.73047C5.02429 5.78966 5.78966 5.02429 6.73047 4.54492C7.79998 4.00013 9.20005 4 12 4H24ZM8 23C7.44772 23 7 23.4477 7 24V28C7 28.5523 7.44772 29 8 29H10C10.5523 29 11 28.5523 11 28V24C11 23.4477 10.5523 23 10 23H8ZM13 23C12.4477 23 12 23.4477 12 24V28C12 28.5523 12.4477 29 13 29H15C15.5523 29 16 28.5523 16 28V24C16 23.4477 15.5523 23 15 23H13ZM18 23C17.4477 23 17 23.4477 17 24V28C17 28.5523 17.4477 29 18 29H20C20.5523 29 21 28.5523 21 28V24C21 23.4477 20.5523 23 20 23H18ZM23 23C22.4477 23 22 23.4477 22 24V28C22 28.5523 22.4477 29 23 29H25C25.5523 29 26 28.5523 26 28V24C26 23.4477 25.5523 23 25 23H23ZM8 15C7.44772 15 7 15.4477 7 16V20C7 20.5523 7.44772 21 8 21H10C10.5523 21 11 20.5523 11 20V16C11 15.4477 10.5523 15 10 15H8ZM13 15C12.4477 15 12 15.4477 12 16V20C12 20.5523 12.4477 21 13 21H15C15.5523 21 16 20.5523 16 20V16C16 15.4477 15.5523 15 15 15H13ZM18 15C17.4477 15 17 15.4477 17 16V20C17 20.5523 17.4477 21 18 21H20C20.5523 21 21 20.5523 21 20V16C21 15.4477 20.5523 15 20 15H18ZM26 15C25.4477 15 25 15.4477 25 16V20C25 20.5523 25.4477 21 26 21H28C28.5523 21 29 20.5523 29 20V16C29 15.4477 28.5523 15 28 15H26ZM8 7C7.44772 7 7 7.44772 7 8V12C7 12.5523 7.44772 13 8 13H10C10.5523 13 11 12.5523 11 12V8C11 7.44772 10.5523 7 10 7H8ZM13 7C12.4477 7 12 7.44772 12 8V12C12 12.5523 12.4477 13 13 13H15C15.5523 13 16 12.5523 16 12V8C16 7.44772 15.5523 7 15 7H13ZM18 7C17.4477 7 17 7.44772 17 8V12C17 12.5523 17.4477 13 18 13H20C20.5523 13 21 12.5523 21 12V8C21 7.44772 20.5523 7 20 7H18ZM23 7C22.4477 7 22 7.44772 22 8V12C22 12.5523 22.4477 13 23 13H25C25.5523 13 26 12.5523 26 12V8C26 7.44772 25.5523 7 25 7H23Z" fill="currentColor"/>
</svg>
