<svg width="100%" height="100%" viewBox="0 0 36 36" fill="none" xmlns="http://www.w3.org/2000/svg">
<path d="M17.2371 5.36156C17.637 4.87956 18.3763 4.8794 18.7761 5.36156L24.0027 11.6633V17.0002C24.0027 18.1048 24.8981 19.0002 26.0027 19.0002C27.107 19 28.0027 18.1046 28.0027 17.0002V16.4866L31.782 21.0442C32.322 21.6958 31.8578 22.6825 31.0115 22.6829H26.9451C27.0048 23.3597 27.0066 24.2172 27.0066 25.3723V25.5715C27.0066 27.8116 27.0069 28.9327 26.5711 29.7883C26.1876 30.5407 25.5753 31.1529 24.823 31.5364C23.9674 31.9723 22.8461 31.9719 20.6062 31.9719H15.407C13.1671 31.9719 12.0458 31.9721 11.1902 31.5364C10.4378 31.1529 9.82562 30.5407 9.44214 29.7883C9.00617 28.9327 9.0066 27.8117 9.0066 25.5715V25.3723C9.0066 24.2172 9.00835 23.3597 9.06812 22.6829H5.00171C4.15501 22.6829 3.69172 21.6959 4.23218 21.0442L17.2371 5.36156ZM16.0281 21.0061C15.0966 21.0061 14.6299 21.0064 14.2625 21.1584C13.7727 21.3614 13.3834 21.7507 13.1804 22.2405C13.0282 22.608 13.0281 23.0742 13.0281 24.0061C13.0281 24.938 13.0282 25.4042 13.1804 25.7717C13.3834 26.2615 13.7727 26.6508 14.2625 26.8538C14.6299 27.0058 15.0966 27.0061 16.0281 27.0061C16.9596 27.0061 17.4262 27.006 17.7937 26.8538C18.2834 26.6507 18.6728 26.2614 18.8757 25.7717C19.0279 25.4042 19.0281 24.9378 19.0281 24.0061C19.0281 23.0744 19.0279 22.608 18.8757 22.2405C18.6728 21.7508 18.2834 21.3615 17.7937 21.1584C17.4262 21.0062 16.9596 21.0061 16.0281 21.0061Z" fill="currentColor"/>
<path d="M26.0332 9.00586C27.1378 9.00586 28.0005 9.90129 28.0005 11.0059V19.999L24.0005 19.499V11.0146C24.0005 9.91006 24.9286 9.00586 26.0332 9.00586Z" fill="currentColor"/>
</svg>
