<svg width="100%" height="100%" viewBox="0 0 36 36" fill="none" xmlns="http://www.w3.org/2000/svg">
<rect x="5" y="9" width="22" height="14" rx="4" stroke="currentColor" stroke-width="2"/>
<path d="M27.2002 18C28.8802 18 29.7206 18.0002 30.3623 18.3271C30.9265 18.6147 31.3853 19.0735 31.6729 19.6377C31.9998 20.2794 32 21.1198 32 22.7998V26.2002C32 27.8802 31.9998 28.7206 31.6729 29.3623C31.3853 29.9265 30.9265 30.3853 30.3623 30.6729C29.7206 30.9998 28.8802 31 27.2002 31H14.7998C13.1198 31 12.2794 30.9998 11.6377 30.6729C11.0735 30.3853 10.6147 29.9265 10.3271 29.3623C10.0002 28.7206 10 27.8802 10 26.2002V22.7998C10 21.1198 10.0002 20.2794 10.3271 19.6377C10.6147 19.0735 11.0735 18.6147 11.6377 18.3271C12.0024 18.1413 12.4315 18.063 13.042 18.0283L18.9092 22V19.1426H26V18H27.2002Z" fill="currentColor"/>
<path d="M26 18L20.0909 18H13L13 16.8571H20.0909V14L26 18Z" fill="currentColor"/>
</svg>
