<svg width="100%" height="100%" viewBox="0 0 36 36" fill="none" xmlns="http://www.w3.org/2000/svg">
<path d="M17 5C24.1797 5 30 10.8203 30 18C30 19.7749 29.644 21.4665 29 23.0078V16.2002C29 15.0801 29.0002 14.5196 28.7822 14.0918C28.5905 13.7155 28.2845 13.4095 27.9082 13.2178C27.4804 12.9998 26.9199 13 25.7998 13H15.7998C14.1198 13 13.2794 13.0002 12.6377 13.3271C12.0735 13.6147 11.6147 14.0735 11.3271 14.6377C11.0002 15.2794 11 16.1198 11 17.7998V29.5342C6.84053 27.366 4 23.0152 4 18C4 10.8203 9.8203 5 17 5ZM15 15C16.1046 15 17 15.8954 17 17C17 18.1046 16.1046 19 15 19C13.8954 19 13 18.1046 13 17C13 15.8954 13.8954 15 15 15Z" fill="currentColor"/>
<path d="M30 18C30 25.1797 24.1797 31 17 31C9.8203 31 4 25.1797 4 18C4 10.8203 9.8203 5 17 5C24.1797 5 30 10.8203 30 18ZM6.77918 18C6.77918 23.6448 11.3552 28.2208 17 28.2208C22.6448 28.2208 27.2208 23.6448 27.2208 18C27.2208 12.3552 22.6448 7.77918 17 7.77918C11.3552 7.77918 6.77918 12.3552 6.77918 18Z" fill="currentColor"/>
<path d="M27.6215 28.2072C28.2882 27.5405 29.3691 27.5405 30.0358 28.2072L30.38 28.5514C30.9512 29.1226 30.9512 30.0488 30.38 30.62L30.0343 30.9657C29.4631 31.5369 28.5369 31.5369 27.9657 30.9657L27.6215 30.6215C26.9548 29.9548 26.9548 28.8738 27.6215 28.2072V28.2072Z" fill="currentColor"/>
</svg>
