<svg width="100%" height="100%" viewBox="0 0 36 36" fill="none" xmlns="http://www.w3.org/2000/svg">
<path d="M21.5996 5C23.8398 5 24.9608 4.99957 25.8164 5.43555C26.5689 5.81902 27.181 6.43109 27.5645 7.18359C28.0004 8.03924 28 9.16018 28 11.4004V20.5996C28 22.8398 28.0004 23.9608 27.5645 24.8164C27.2113 25.5094 26.6623 26.0799 25.9902 26.4658C25.9982 26.1042 26 25.6875 26 25.2002V11.7998C26 10.1198 25.9998 9.27941 25.6729 8.6377C25.3853 8.07347 24.9265 7.61472 24.3623 7.32715C23.7206 7.00018 22.8802 7 21.2002 7L13.2666 7.00029C12.7788 7.00029 12.3619 7.00108 12 7.00908C12.3859 6.3372 12.9575 5.78894 13.6504 5.43584C14.506 4.99987 15.627 5.00029 17.8672 5.00029L21.5996 5Z" fill="currentColor"/>
<path d="M21.7998 8C22.9199 8 23.4804 7.99979 23.9082 8.21777C24.2845 8.40951 24.5905 8.71554 24.7822 9.0918C25.0002 9.51962 25 10.0801 25 11.2002V25.2002C25 26.8802 24.9998 27.7206 24.6729 28.3623C24.3853 28.9265 23.9265 29.3853 23.3623 29.6729C22.7206 29.9998 21.8802 30 20.2002 30H13.7998C12.1198 30 11.2794 29.9998 10.6377 29.6729C10.0735 29.3853 9.61472 28.9265 9.32715 28.3623C9.00018 27.7206 9 26.8802 9 25.2002V12.7998C9 11.1198 9.00018 10.2794 9.32715 9.6377C9.61472 9.07347 10.0735 8.61472 10.6377 8.32715C11.2794 8.00018 12.1198 8 13.7998 8H21.7998ZM13 10C11.8954 10 11 10.8954 11 12C11 13.1046 11.8954 14 13 14C14.1046 14 15 13.1046 15 12C15 10.8954 14.1046 10 13 10Z" fill="currentColor"/>
</svg>
