<svg width="100%" height="100%" viewBox="0 0 36 36" fill="none" xmlns="http://www.w3.org/2000/svg">
<path d="M18.4404 5C22.6941 5 24.8212 4.99984 26.4629 5.78809C28.1022 6.57526 29.4247 7.89782 30.2119 9.53711C31.0002 11.1788 31 13.3059 31 17.5596V18.4404C31 22.6941 31.0002 24.8212 30.2119 26.4629C29.4247 28.1022 28.1022 29.4247 26.4629 30.2119C24.8212 31.0002 22.6941 31 18.4404 31H17.5596C13.3059 31 11.1788 31.0002 9.53711 30.2119C7.89782 29.4247 6.57526 28.1022 5.78809 26.4629C4.99984 24.8212 5 22.6941 5 18.4404V17.5596C5 13.3059 4.99984 11.1788 5.78809 9.53711C6.57526 7.89782 7.89782 6.57526 9.53711 5.78809C11.1788 4.99984 13.3059 5 17.5596 5H18.4404ZM10.1797 23.5625C10.0641 23.7045 10 23.8826 10 24.0674C10 24.2787 10.0834 24.482 10.2324 24.6318L11.3682 25.7676C11.518 25.9166 11.7213 26 11.9326 26C12.1438 26 12.3463 25.9164 12.4961 25.7676L15.7383 22.5312C16.1347 22.1355 16.3337 21.9372 16.4082 21.709C16.4736 21.5081 16.4734 21.2908 16.4082 21.0898C16.334 20.8616 16.1361 20.6634 15.7402 20.2676L14.6084 19.1357L10.1797 23.5625ZM13.6602 10.0352C12.9657 9.9345 12.7395 10.7545 13.2354 11.251L13.7686 11.7842C14.0024 12.0183 14.0025 12.3977 13.7686 12.6318L12.6328 13.7676C12.3987 14.0017 12.0183 14.0017 11.7842 13.7676L11.252 13.2354C10.7555 12.7389 9.9352 12.9653 10.0361 13.6602C10.1094 14.164 10.302 14.643 10.5977 15.0576C10.8934 15.4722 11.2837 15.8106 11.7363 16.0439C12.189 16.2773 12.6909 16.399 13.2002 16.3994C13.5724 16.3937 13.7588 16.3914 13.833 16.4014C14.0555 16.4314 14.1114 16.4538 14.292 16.5869C14.3522 16.6313 14.4266 16.7052 14.5742 16.8525L23.5039 25.7676C23.6537 25.9164 23.8562 26 24.0674 26C24.2787 26 24.482 25.9166 24.6318 25.7676L25.7676 24.6318C25.9166 24.482 26 24.2787 26 24.0674C26 23.8562 25.9164 23.6537 25.7676 23.5039L16.8535 14.5742C16.7061 14.4266 16.6323 14.3523 16.5879 14.292C16.4546 14.111 16.4314 14.0548 16.4014 13.832C16.3914 13.7575 16.3947 13.5715 16.4004 13.2002C16.4 12.6911 16.2781 12.1889 16.0449 11.7363C15.8115 11.2836 15.4732 10.8924 15.0586 10.5967C14.6439 10.3009 14.1642 10.1084 13.6602 10.0352ZM24.0947 10.2227C23.916 10.242 23.7396 10.3299 23.3877 10.5059L22.0566 11.1719C21.7625 11.3189 21.6152 11.3924 21.5049 11.499C21.385 11.6149 21.2961 11.7589 21.2461 11.918C21.2001 12.0643 21.2002 12.2289 21.2002 12.5576C21.2002 12.7817 21.2 12.8941 21.1768 13C21.1514 13.1154 21.1057 13.2257 21.042 13.3252C20.9836 13.4164 20.9044 13.496 20.7461 13.6543L20.2637 14.1357C20.1775 14.222 20.1341 14.2656 20.1016 14.3057C19.8035 14.673 19.8033 15.1992 20.1016 15.5664C20.1341 15.6064 20.1776 15.6493 20.2637 15.7354C20.3499 15.8216 20.3935 15.8649 20.4336 15.8975C20.801 16.1958 21.327 16.1959 21.6943 15.8975C21.7344 15.8649 21.7771 15.8215 21.8633 15.7354L22.3457 15.2539C22.5041 15.0955 22.5835 15.0164 22.6748 14.958C22.7743 14.8943 22.8846 14.8486 23 14.8232C23.1057 14.8001 23.2177 14.7998 23.4414 14.7998C23.7701 14.7998 23.9348 14.7998 24.0811 14.7539C24.2404 14.7039 24.385 14.6143 24.501 14.4941C24.6073 14.3839 24.6813 14.2371 24.8281 13.9434L25.4932 12.6113C25.669 12.2597 25.757 12.0839 25.7764 11.9053C25.7958 11.726 25.7665 11.5448 25.6914 11.3809C25.6165 11.2175 25.4774 11.078 25.1992 10.7998C24.9211 10.5217 24.7815 10.3825 24.6182 10.3076C24.4545 10.2327 24.2737 10.2033 24.0947 10.2227Z" fill="currentColor"/>
</svg>
