<svg width="129" height="129" viewBox="0 0 129 129" fill="none" xmlns="http://www.w3.org/2000/svg">
<rect width="129" height="129" rx="19" fill="#070203"/>
<path d="M35.2288 79.2223L35.3459 61.0955H16.3773C13.0987 61.0955 11.4595 59.4585 11.4595 56.1845C11.4595 52.9105 13.0987 51.2735 16.3773 51.2735H33.1212L33.3366 27.9754H19.5199C16.3584 27.9754 14.7192 26.2215 14.7192 23.0644C14.7192 19.9073 16.3584 18.2703 19.5199 18.2703H33.3366V15.028C33.3366 11.637 35.0929 10 38.4885 10C41.8842 10 43.5234 11.637 43.5234 15.028V18.2703H56.9888C60.1503 18.2703 61.7896 19.9073 61.7896 23.0644C61.7896 26.2215 60.1503 27.9754 56.9888 27.9754H43.5234L43.3081 51.2735H59.5837C62.8622 51.2735 64.5015 52.9105 64.5015 56.1845C64.5015 59.4585 62.8622 61.0955 59.5837 61.0955H45.5328L45.4157 73.9604H58.4128C61.5742 73.9604 63.2135 75.5975 63.2135 78.7546C63.2135 81.9116 61.5742 83.6656 58.4128 83.6656H45.4157L45.7482 101.907C52.1881 104.128 60.2674 104.713 70.2201 104.713C76.1917 104.83 100.312 104.83 113.192 104.596C118.696 104.362 118.813 105.999 116.822 111.144C115.651 114.301 113.544 115.353 110.148 115.353H92.8185H70.3372C47.0362 115.353 33.2195 111.963 24.3206 97.2294C23.501 103.661 22.0959 109.507 20.2224 114.652C18.7002 118.16 16.7097 118.861 13.3141 116.991C10.0355 115.237 9.21591 113.716 10.7381 110.442C14.9533 99.9188 15.9089 88.9274 16.3773 73.025C16.4944 69.5171 18.2507 67.0616 21.7634 67.2955C25.042 67.5293 26.5641 69.2833 26.447 72.5573C26.33 76.299 26.0958 79.9238 25.8616 83.4317C28.2034 90.7983 31.5802 92.3184 35.5613 96.0601L35.2288 79.2223ZM111.787 37.0107V53.3782C111.787 57.9384 108.743 60.9786 104.176 60.9786H83.8026C81.4608 60.9786 80.2899 62.1479 80.2899 64.4865V83.6656C80.2899 87.6412 81.1095 88.2258 86.2615 88.2258C88.4862 88.2258 99.6098 88.2258 102.771 88.2258C105.347 88.2258 106.752 87.5243 107.572 84.3672C108.04 79.4561 110.148 72.9081 114.597 74.8959C117.408 76.1821 117.759 81.4439 117.408 84.4841C115.768 95.1247 112.256 98.1649 103.591 98.1649C100.898 98.1649 87.4324 98.1649 84.8564 98.1649C73.1473 98.1649 69.7517 95.1247 69.7517 83.6656V58.8739C69.7517 54.3136 72.7961 51.2735 77.3626 51.2735H97.7363C100.078 51.2735 101.249 50.1042 101.249 47.7656V30.9189C101.249 28.5803 100.078 27.411 97.7363 27.411H73.3815C70.2201 27.411 68.5808 25.6571 68.5808 22.5C68.5808 19.3429 70.2201 17.7059 73.3815 17.7059H90.1255H104.176C108.743 17.7059 111.787 20.7461 111.787 25.3063V37.0107Z" fill="white"/>
</svg>
