<svg width="129" height="129" viewBox="0 0 129 129" fill="none" xmlns="http://www.w3.org/2000/svg">
<rect width="129" height="129" rx="19" fill="#070203"/>
<path d="M63.798 77.1621H99.4934V57.5113H63.798H28.2372V77.1621H63.798ZM63.798 48.02H99.4934V31.5775C99.4934 29.1713 98.4158 28.1018 95.9912 28.1018H63.798H31.7394C29.3148 28.1018 28.2372 29.1713 28.2372 31.5775V48.02H63.798ZM63.798 106.304H95.9912C98.4158 106.304 99.4934 105.235 99.4934 102.828V86.5196H63.798H28.2372V102.828C28.2372 105.235 29.3148 106.304 31.7394 106.304H63.798ZM18 70.8792V26.2303C18 21.5516 21.0981 18.477 25.8126 18.477L48 18.477C49.4817 14.3329 48.5 16.7953 50 12.2953C50.8082 8.55229 54.2284 8.76062 58 9.29533C62.4451 9.96373 67.0714 11.7953 66.5 13.7953C65.5 17.2953 66 15.2953 65.2322 18.477L102.187 18.477C106.902 18.477 110 21.5516 110 26.2303V108.042C110 112.721 106.902 115.795 102.187 115.795H63.798H25.8126C21.0981 115.795 18 112.721 18 108.042V70.8792Z" fill="white"/>
</svg>
