<svg width="879" height="879" viewBox="0 0 879 879" fill="none" xmlns="http://www.w3.org/2000/svg">
<circle cx="439.5" cy="439.5" r="424" fill="#717171" stroke="black" stroke-width="31"/>
<path d="M120 549C122.667 524.667 130 466.8 138 430C144.841 398.533 160.806 358.877 173.413 336L150 196.5C148.333 192.333 153.5 181.7 187.5 172.5C221.5 163.3 279.333 176.333 304 184C301.167 171.5 305.6 144.1 346 134.5C386.4 124.9 442.833 138.5 466 146.5C466 142.167 477 133.7 521 134.5C565 135.3 601 162.833 620 179C644.5 170 718.9 179.3 724.5 190.5C730.1 201.7 731.833 214.5 732 219.5L724.5 456.5C733.167 470.333 742.914 508.285 743 545C743.153 610.404 728.33 800.919 579 836C450.283 866.239 324.5 849.167 280 822.5C281.5 818.833 271.842 776.89 261 749.5C230.509 672.469 120 603 120 591V549Z" fill="white"/>
<path d="M521 684.5C512.333 655 489.2 589.4 466 563C442.8 536.6 360.667 514.333 322.5 506.5V476V456.5C337.333 458.167 374.3 458.9 403.5 448.5C440 435.5 454.5 386.5 439 368C426.6 353.2 410.167 344.167 403.5 341.5C403.5 341.5 303.063 343.004 240.5 330.5C219.602 326.323 195.5 315.1 187.5 317.5C184.341 318.448 179.235 325.434 173.413 336M173.413 336C160.806 358.877 144.841 398.533 138 430C130 466.8 122.667 524.667 120 549C120 559 120 581.4 120 591C120 603 230.509 672.469 261 749.5C271.842 776.89 281.5 818.833 280 822.5C324.5 849.167 450.283 866.239 579 836C728.33 800.919 743.153 610.404 743 545C742.914 508.285 733.167 470.333 724.5 456.5L732 219.5C731.833 214.5 730.1 201.7 724.5 190.5C718.9 179.3 644.5 170 620 179C601 162.833 565 135.3 521 134.5C477 133.7 466 142.167 466 146.5C442.833 138.5 386.4 124.9 346 134.5C305.6 144.1 301.167 171.5 304 184C279.333 176.333 221.5 163.3 187.5 172.5C153.5 181.7 148.333 192.333 150 196.5L173.413 336Z" stroke="black" stroke-width="25"/>
<path d="M609.5 170.5V443.5C616.489 447.794 638.079 456 668.534 456C698.99 456 716.534 452.221 721.5 450.332" stroke="black" stroke-width="25"/>
<path d="M472 147.5V469.5M472 469.5C482.167 479.167 512.7 486.7 537.5 487.5C562.3 488.3 594.5 466.833 609.5 456.5V437.5M472 469.5C461.167 480.167 432.6 502.6 405 507C377.4 511.4 342.167 505.5 328 502" stroke="black" stroke-width="25"/>
<path d="M310 157L308 331" stroke="black" stroke-width="25"/>
</svg>
