<svg width="129" height="132" viewBox="0 0 129 132" fill="none" xmlns="http://www.w3.org/2000/svg">
<rect y="3" width="129" height="129" rx="19" fill="#070203"/>
<path d="M58.7623 77.4704V45.9837L22.5694 45.9837C18.8724 45.9837 17.024 44.1531 17.024 40.4919C17.024 36.8306 18.8724 35 22.5694 35L48.7806 35C54.4112 35 57.568 35 63.1986 35C68.0046 35 71.2086 38.1731 71.2086 42.9327V44.7633C73.6732 53.1842 77.2266 57.0895 81.17 64.2899C88.6871 58.4319 95.0186 51.5976 101.427 44.7633C104.261 41.5902 109.041 42.3225 112.368 44.7633C116.311 47.6923 116.065 51.6415 112.368 54.8145C103.865 62.137 94.376 71.6124 86.366 77.2263C93.5134 87.5998 102.879 96.1427 114.216 102.001C119.145 104.319 120.501 107.126 117.174 111.398C114.709 114.449 111.875 114.693 108.301 112.984C91.9114 104.197 79.958 90.2847 71.2086 72.8328V109.201C71.2086 115.791 69.8531 119.086 65.2935 121.039C61.9663 122.382 57.2835 122.87 50.8755 122.992C47.1786 123.114 43.2352 121.893 42.0029 118.354C40.1544 113.228 44.0978 111.642 49.52 111.764C52.4775 111.764 54.9421 111.764 56.0512 111.764C58.2694 111.642 58.7623 111.032 58.7623 108.957V77.4704Z" fill="white"/>
<path d="M16.1477 65.1613H25.0877H40.0794C34.5778 80.4654 25.2252 93.31 14.0846 102.055C9.13326 105.471 8.58311 108.341 12.9843 112.44C16.1477 115.446 18.3483 115.856 21.9243 113.397C34.9905 103.285 46.4061 87.161 53.283 64.888C55.4836 56.826 52.4578 53 46.4061 53H27.8385H16.1477C12.1591 53 10.096 55.0497 10.096 59.0123C10.096 62.975 12.1591 65.1613 16.1477 65.1613Z" fill="white"/>
<path d="M39.6027 25.8767C45.205 27.1687 57.7918 29.0716 64.7723 29.4651C73.1489 29.9373 81.184 30.1582 88.6883 29.6528C91.9824 29.3417 93.857 27.6681 94.82 24.8657C96.4005 20.6231 92.2695 18.2855 87.3127 18.4408C80.1828 18.7127 75.2273 18.3859 66.8608 17.976C58.4942 17.5661 49.5479 15.6692 44.0518 14.9681C39.4384 14.2672 35.1874 13.779 33.8788 17.9437C32.5702 22.1084 34.0004 24.5846 39.6027 25.8767Z" fill="white"/>
</svg>
