<svg width="305" height="95" viewBox="0 0 305 95" fill="none" xmlns="http://www.w3.org/2000/svg">
<path d="M0 27C0 15.402 9.40202 6.00003 21 6.00003L245.953 6C252.504 6 258.584 9.40959 262 15L304 84C305.846 87.6912 303.183 92.0391 299.056 92.0726L21.1705 94.3282C9.50626 94.4228 0 84.9935 0 73.3289V27Z" fill="url(#paint0_linear_234_215)"/>
<path d="M181.901 39.5285C180.523 38.7114 179.334 38.0415 178.332 37.5188L175.024 46.5076C176.067 47.0629 177.283 47.7697 178.672 48.6277C180.783 49.9323 182.825 51.7262 184.824 53.2375C186.101 54.1697 186.022 54.0613 186.882 54.7976L190.542 45.4513C189.599 44.6496 189.589 44.7376 188.22 43.8303C186.132 42.3499 184.173 40.8179 181.901 39.5285Z" fill="white"/>
<path d="M117 85H99.6498L89.5 64.0843L79.3502 85H62L81.2587 50.1404L63.2145 17H80.4779L89.5 36.1966L98.5221 17H115.785L97.7413 50.1404L117 85Z" fill="url(#paint1_linear_234_215)"/>
<path d="M60.9185 57C59 73 55 85 34.8448 85C27.2078 85 21.411 83.5276 16.6264 78.5C9.72548 71.2486 9 60.3453 9 50C9 39.6547 9.72548 28.2514 16.6264 21C21.411 15.9724 27.2998 15 34.9368 15C52 15.5 58.5 25.5 60 45H44.5403C44 39 44 30.0829 34.9368 30.0829C31.9924 30.0829 28.6962 30.8564 27.5 32.5C26.0278 34.5304 25 37.4309 25 50C25 62.5691 26.0278 64.9696 27.5 67C28.6962 68.6436 31.9924 69.9171 34.9368 69.9171C46 69 44.5403 60 44.5403 57H60.9185Z" fill="url(#paint2_linear_234_215)"/>
<path d="M256.576 33.8456C257.184 35.0336 257.824 36.4337 258.496 38.0459C259.168 39.6157 259.712 40.9522 260.128 42.0553L255.568 44.6009C255.056 43.2857 254.496 41.8856 253.888 40.4006C253.312 38.8732 252.704 37.4944 252.064 36.264L256.576 33.8456ZM263.152 32C263.568 32.8061 264 33.7183 264.448 34.7366C264.896 35.7124 265.328 36.6882 265.744 37.6641C266.16 38.5975 266.496 39.4248 266.752 40.1461L262.24 42.6917C261.76 41.3765 261.2 39.9764 260.56 38.4914C259.92 36.964 259.28 35.6063 258.64 34.4184L263.152 32ZM248.948 35.0548C248.916 35.3518 248.852 35.8821 248.756 36.6458C248.66 37.4095 248.58 38.2156 248.516 39.0642C248.452 39.9127 248.42 40.634 248.42 41.228C248.42 42.5432 248.42 43.9857 248.42 45.5556C248.42 47.1254 248.42 48.6952 248.42 50.265C248.42 51.8348 248.42 53.2986 248.42 54.6562C248.42 55.5048 248.42 56.6715 248.42 58.1565C248.42 59.6415 248.42 61.3173 248.42 63.1842C248.42 65.0085 248.42 66.9178 248.42 68.9119C248.42 70.9059 248.42 72.8576 248.42 74.7668C248.42 76.6336 248.276 85 248.276 85H238.568C238.568 85 238.664 77.6307 238.664 76.4851C238.696 75.3396 238.712 73.9607 238.712 72.3485C238.712 70.6938 238.712 68.9543 238.712 67.1299C238.712 65.2631 238.712 63.4811 238.712 61.784C238.712 60.087 238.712 58.602 238.712 57.3292C238.712 56.0563 238.712 55.1654 238.712 54.6562C238.712 53.8925 238.712 52.7046 238.712 51.0923C238.712 49.4801 238.712 47.7618 238.712 45.9374C238.712 44.113 238.712 42.522 238.712 41.1643C238.712 40.2733 238.664 39.1914 238.568 37.9186C238.472 36.6034 238.376 35.6488 238.28 35.0548H248.948ZM223.456 44.9191C224.192 45.0464 225.008 45.1737 225.904 45.301C226.832 45.3859 227.664 45.4283 228.4 45.4283C228.816 45.4283 229.6 45.4283 230.752 45.4283C231.904 45.4283 233.28 45.4283 234.88 45.4283C236.48 45.4283 237 45.4283 238.856 45.4283C240.712 45.4283 244.644 45.4283 246.5 45.4283C248.388 45.4283 249.28 45.4283 250.912 45.4283C252.576 45.4283 254.016 45.4283 255.232 45.4283C256.448 45.4283 257.328 45.4283 257.872 45.4283C258.608 45.4283 259.488 45.3859 260.512 45.301C261.536 45.2161 262.384 45.1101 263.056 44.9828V55.0381C262.256 54.9532 261.376 54.8896 260.416 54.8472C259.456 54.8047 258.624 54.7835 257.92 54.7835C257.376 54.7835 256.496 54.7835 255.28 54.7835C254.096 54.7835 252.672 54.7835 251.008 54.7835C249.376 54.7835 248.5 54.7835 246.644 54.7835C244.788 54.7835 240.856 54.7835 239 54.7835C237.144 54.7835 236.608 54.7835 234.976 54.7835C233.376 54.7835 232 54.7835 230.848 54.7835C229.696 54.7835 228.88 54.7835 228.4 54.7835C227.696 54.7835 226.864 54.8047 225.904 54.8472C224.976 54.8896 224.16 54.9532 223.456 55.0381V44.9191ZM236.368 63.4387C235.792 64.8813 235.104 66.4511 234.304 68.1482C233.536 69.8028 232.704 71.4787 231.808 73.1758C230.944 74.8305 230.096 76.3791 229.264 77.8216C228.464 79.2217 227.744 80.3885 227.104 81.3219L220.816 75.6578C221.616 74.6396 222.432 73.4728 223.264 72.1576C224.096 70.8423 224.912 69.4634 225.712 68.0209C226.512 66.5783 227.248 65.1146 227.92 63.6296C228.624 62.1447 229.232 60.7021 229.744 59.302L236.368 63.4387ZM257.296 58.9838C257.904 60.0021 258.576 61.2325 259.312 62.675C260.048 64.0751 260.8 65.5813 261.568 67.1935C262.336 68.7634 263.056 70.312 263.728 71.8393C264.4 73.3243 264.976 74.6396 265.456 75.7851L258.64 80.7491C258.096 79.3066 257.488 77.8004 256.816 76.2306C256.176 74.6183 255.504 73.0273 254.8 71.4575C254.128 69.8877 253.456 68.4239 252.784 67.0663C252.112 65.7086 251.504 64.5418 250.96 63.566L257.296 58.9838Z" fill="white"/>
<path d="M174.5 75.5C177 75.5 180 75.5 183 75.5C185.034 75.5 192.5 75.5 192.5 75.5C197.5 68 198 67 201.5 59C205 51 205.444 46.9699 206.5 44L218 48C216.72 51.0124 206.5 76.5 206.5 76.5L200.5 85.5H194.5H186C186 85.5 176.516 85.0757 174.5 85.5V75.5Z" fill="white"/>
<path d="M130.576 40C131.536 40.1273 132.608 40.2334 133.792 40.3182C135.008 40.4031 136.048 40.4455 136.912 40.4455H161.392C162.16 40.4455 166.072 40.4243 167.032 40.3818C167.992 40.3394 168.648 40.297 169 40.2546C168.968 41.0183 168.936 42.0153 168.904 43.2457C168.872 44.4761 168.856 45.6216 168.856 46.6823V65.1085C168.856 66.1692 168 74.2389 168 74.2389L159.628 85.1775C159.628 85.1775 149 80.8576 149 79.7121C149.032 78.5665 159.5 68.7965 159.5 67.6085V50.9205L136.912 50.4371C135.824 50.4371 134.672 50.4584 133.456 50.5008C132.272 50.5432 131.312 50.6069 130.576 50.6917V40ZM130 74.2389C130.928 74.3238 131.936 74.4086 133.024 74.4935C134.112 74.5784 135.216 74.6208 136.336 74.6208H159.5L159.628 85.1775H136.704C135.808 85.1775 134.576 85.2199 133.264 85.3048C131.952 85.3896 130.864 85.4957 130 85.623V74.2389Z" fill="white"/>
<defs>
<linearGradient id="paint0_linear_234_215" x1="154.5" y1="6" x2="154.5" y2="94.5" gradientUnits="userSpaceOnUse">
<stop stop-color="#C3040F"/>
<stop offset="0.519275" stop-color="#C2000A"/>
<stop offset="1" stop-color="#C2060F"/>
</linearGradient>
<linearGradient id="paint1_linear_234_215" x1="89.5" y1="17" x2="89.5" y2="85" gradientUnits="userSpaceOnUse">
<stop stop-color="#FFD000"/>
<stop offset="0.476005" stop-color="#FFFA00"/>
<stop offset="1" stop-color="#EFA106"/>
</linearGradient>
<linearGradient id="paint2_linear_234_215" x1="34.844" y1="15" x2="34.844" y2="85" gradientUnits="userSpaceOnUse">
<stop stop-color="#EFA207"/>
<stop offset="0.490428" stop-color="#FFFA00"/>
<stop offset="1" stop-color="#F1B508"/>
</linearGradient>
</defs>
</svg>
