<svg width="128" height="128" viewBox="0 0 128 128" fill="none" xmlns="http://www.w3.org/2000/svg">
<mask id="path-1-outside-1_764_336" maskUnits="userSpaceOnUse" x="45.1089" y="1.92893" width="82.0244" height="82.0244" fill="black">
<rect fill="white" x="45.1089" y="1.92893" width="82.0244" height="82.0244"/>
<path d="M109.752 27.681C115.219 33.1483 115.219 42.0127 109.752 47.48L91.3208 65.9111C85.8534 71.3782 76.9891 71.3783 71.5218 65.9111L62.7403 57.1295C57.273 51.6622 57.2731 42.7979 62.7403 37.3305L81.1713 18.8995C86.6387 13.4323 95.503 13.4322 100.97 18.8995L109.752 27.681ZM95.7333 28.1457C93.3901 25.8026 89.5912 25.8026 87.248 28.1457L71.6917 43.7021C69.3485 46.0452 69.3485 49.8442 71.6917 52.1874L75.9343 56.43C78.2774 58.7732 82.0764 58.7732 84.4196 56.43L99.9759 40.8737C102.319 38.5305 102.319 34.7315 99.9759 32.3884L95.7333 28.1457Z"/>
</mask>
<path d="M109.752 27.681C115.219 33.1483 115.219 42.0127 109.752 47.48L91.3208 65.9111C85.8534 71.3782 76.9891 71.3783 71.5218 65.9111L62.7403 57.1295C57.273 51.6622 57.2731 42.7979 62.7403 37.3305L81.1713 18.8995C86.6387 13.4323 95.503 13.4322 100.97 18.8995L109.752 27.681ZM95.7333 28.1457C93.3901 25.8026 89.5912 25.8026 87.248 28.1457L71.6917 43.7021C69.3485 46.0452 69.3485 49.8442 71.6917 52.1874L75.9343 56.43C78.2774 58.7732 82.0764 58.7732 84.4196 56.43L99.9759 40.8737C102.319 38.5305 102.319 34.7315 99.9759 32.3884L95.7333 28.1457Z" fill="white"/>
<path d="M109.752 47.48L113.287 51.0155L113.287 51.0155L109.752 47.48ZM91.3208 65.9111L94.8562 69.4466L94.8563 69.4466L91.3208 65.9111ZM62.7403 37.3305L59.2047 33.795L59.2047 33.7951L62.7403 37.3305ZM81.1713 18.8995L77.6358 15.3639L77.6358 15.364L81.1713 18.8995ZM100.97 18.8995L104.506 15.364L104.506 15.364L100.97 18.8995ZM95.7333 28.1457L99.2688 24.6102L99.2688 24.6102L95.7333 28.1457ZM87.248 28.1457L83.7125 24.6102L83.7125 24.6102L87.248 28.1457ZM71.6917 43.7021L68.1561 40.1666L68.1561 40.1666L71.6917 43.7021ZM71.6917 52.1874L68.1561 55.7229L68.1561 55.7229L71.6917 52.1874ZM75.9343 56.43L72.3988 59.9656L72.3988 59.9656L75.9343 56.43ZM84.4196 56.43L87.9551 59.9656L87.9551 59.9656L84.4196 56.43ZM99.9759 40.8737L103.511 44.4092L103.511 44.4092L99.9759 40.8737ZM99.9759 32.3884L103.511 28.8529L103.511 28.8529L99.9759 32.3884ZM109.752 27.681L106.216 31.2166C109.731 34.7312 109.731 40.4297 106.216 43.9445L109.752 47.48L113.287 51.0155C120.707 43.5956 120.707 31.5654 113.287 24.1455L109.752 27.681ZM109.752 47.48L106.216 43.9445L87.7852 62.3755L91.3208 65.9111L94.8563 69.4466L113.287 51.0155L109.752 47.48ZM91.3208 65.9111L87.7853 62.3755C84.2705 65.8901 78.5719 65.8901 75.0573 62.3755L71.5218 65.9111L67.9862 69.4466C75.4062 76.8666 87.4363 76.8663 94.8562 69.4466L91.3208 65.9111ZM71.5218 65.9111L75.0573 62.3755L66.2758 53.594L62.7403 57.1295L59.2047 60.6651L67.9862 69.4466L71.5218 65.9111ZM62.7403 57.1295L66.2758 53.594C62.7612 50.0794 62.7612 44.3808 66.2759 40.866L62.7403 37.3305L59.2047 33.7951C51.785 41.215 51.7848 53.2451 59.2047 60.6651L62.7403 57.1295ZM62.7403 37.3305L66.2758 40.8661L84.7068 22.435L81.1713 18.8995L77.6358 15.364L59.2047 33.795L62.7403 37.3305ZM81.1713 18.8995L84.7068 22.4351C88.2216 18.9204 93.9202 18.9204 97.4348 22.435L100.97 18.8995L104.506 15.364C97.0859 7.944 85.0557 7.94425 77.6358 15.3639L81.1713 18.8995ZM100.97 18.8995L97.4348 22.435L106.216 31.2166L109.752 27.681L113.287 24.1455L104.506 15.364L100.97 18.8995ZM95.7333 28.1457L99.2688 24.6102C94.9731 20.3144 88.0082 20.3144 83.7125 24.6102L87.248 28.1457L90.7835 31.6813C91.1741 31.2908 91.8072 31.2908 92.1978 31.6813L95.7333 28.1457ZM87.248 28.1457L83.7125 24.6102L68.1561 40.1666L71.6917 43.7021L75.2272 47.2376L90.7835 31.6813L87.248 28.1457ZM71.6917 43.7021L68.1561 40.1666C63.8604 44.4623 63.8604 51.4271 68.1561 55.7229L71.6917 52.1874L75.2272 48.6518C74.8367 48.2613 74.8367 47.6282 75.2272 47.2376L71.6917 43.7021ZM71.6917 52.1874L68.1561 55.7229L72.3988 59.9656L75.9343 56.43L79.4698 52.8945L75.2272 48.6518L71.6917 52.1874ZM75.9343 56.43L72.3988 59.9656C76.6945 64.2613 83.6593 64.2613 87.9551 59.9656L84.4196 56.43L80.884 52.8945C80.4935 53.285 79.8604 53.285 79.4698 52.8945L75.9343 56.43ZM84.4196 56.43L87.9551 59.9656L103.511 44.4092L99.9759 40.8737L96.4404 37.3381L80.884 52.8945L84.4196 56.43ZM99.9759 40.8737L103.511 44.4092C107.807 40.1134 107.807 33.1486 103.511 28.8529L99.9759 32.3884L96.4404 35.9239C96.8309 36.3144 96.8309 36.9476 96.4404 37.3381L99.9759 40.8737ZM99.9759 32.3884L103.511 28.8529L99.2688 24.6102L95.7333 28.1457L92.1978 31.6813L96.4404 35.9239L99.9759 32.3884Z" fill="black" mask="url(#path-1-outside-1_764_336)"/>
<mask id="path-3-outside-2_764_336" maskUnits="userSpaceOnUse" x="1.26804" y="45.7696" width="82.0244" height="82.0244" fill="black">
<rect fill="white" x="1.26804" y="45.7696" width="82.0244" height="82.0244"/>
<path d="M65.911 71.5217C71.3783 76.9889 71.3782 85.8533 65.911 91.3206L47.48 109.752C42.0126 115.219 33.1482 115.219 27.681 109.752L18.8994 100.97C13.4322 95.5029 13.4323 86.6385 18.8994 81.1712L37.3305 62.7401C42.7978 57.273 51.6622 57.2728 57.1295 62.7401L65.911 71.5217ZM51.8925 71.9864C49.5493 69.6432 45.7503 69.6432 43.4072 71.9864L27.8508 87.5427C25.5077 89.8859 25.5077 93.6849 27.8508 96.028L32.0935 100.271C34.4366 102.614 38.2356 102.614 40.5788 100.271L56.1351 84.7143C58.4783 82.3712 58.4783 78.5722 56.1351 76.229L51.8925 71.9864Z"/>
</mask>
<path d="M65.911 71.5217C71.3783 76.9889 71.3782 85.8533 65.911 91.3206L47.48 109.752C42.0126 115.219 33.1482 115.219 27.681 109.752L18.8994 100.97C13.4322 95.5029 13.4323 86.6385 18.8994 81.1712L37.3305 62.7401C42.7978 57.273 51.6622 57.2728 57.1295 62.7401L65.911 71.5217ZM51.8925 71.9864C49.5493 69.6432 45.7503 69.6432 43.4072 71.9864L27.8508 87.5427C25.5077 89.8859 25.5077 93.6849 27.8508 96.028L32.0935 100.271C34.4366 102.614 38.2356 102.614 40.5788 100.271L56.1351 84.7143C58.4783 82.3712 58.4783 78.5722 56.1351 76.229L51.8925 71.9864Z" fill="white"/>
<path d="M65.911 91.3206L69.4465 94.8562L69.4466 94.8561L65.911 91.3206ZM47.48 109.752L51.0154 113.287L51.0155 113.287L47.48 109.752ZM18.8994 81.1712L15.3639 77.6356L15.3638 77.6357L18.8994 81.1712ZM37.3305 62.7401L33.795 59.2045L33.795 59.2046L37.3305 62.7401ZM57.1295 62.7401L60.665 59.2046L60.665 59.2046L57.1295 62.7401ZM51.8925 71.9864L55.428 68.4508L55.428 68.4508L51.8925 71.9864ZM43.4072 71.9864L39.8717 68.4508L39.8717 68.4508L43.4072 71.9864ZM27.8508 87.5427L24.3153 84.0072L24.3153 84.0072L27.8508 87.5427ZM27.8508 96.028L24.3153 99.5635L24.3153 99.5635L27.8508 96.028ZM32.0935 100.271L28.5579 103.806L28.5579 103.806L32.0935 100.271ZM40.5788 100.271L44.1143 103.806L44.1143 103.806L40.5788 100.271ZM56.1351 84.7143L59.6706 88.2498L59.6706 88.2498L56.1351 84.7143ZM56.1351 76.229L59.6706 72.6935L59.6706 72.6935L56.1351 76.229ZM65.911 71.5217L62.3755 75.0572C65.8901 78.5718 65.8901 84.2704 62.3754 87.7852L65.911 91.3206L69.4466 94.8561C76.8662 87.4362 76.8665 75.4061 69.4465 67.9861L65.911 71.5217ZM65.911 91.3206L62.3755 87.7851L43.9444 106.216L47.48 109.752L51.0155 113.287L69.4465 94.8562L65.911 91.3206ZM47.48 109.752L43.9445 106.216C40.4297 109.731 34.7311 109.731 31.2165 106.216L27.681 109.752L24.1454 113.287C31.5654 120.707 43.5955 120.707 51.0154 113.287L47.48 109.752ZM27.681 109.752L31.2165 106.216L22.435 97.4346L18.8994 100.97L15.3639 104.506L24.1454 113.287L27.681 109.752ZM18.8994 100.97L22.435 97.4346C18.9204 93.92 18.9203 88.2215 22.435 84.7066L18.8994 81.1712L15.3638 77.6357C7.9442 85.0556 7.94394 97.0857 15.3639 104.506L18.8994 100.97ZM18.8994 81.1712L22.435 84.7067L40.866 66.2757L37.3305 62.7401L33.795 59.2046L15.3639 77.6356L18.8994 81.1712ZM37.3305 62.7401L40.866 66.2757C44.3808 62.761 50.0793 62.7611 53.5939 66.2757L57.1295 62.7401L60.665 59.2046C53.245 51.7846 41.2149 51.7849 33.795 59.2045L37.3305 62.7401ZM57.1295 62.7401L53.5939 66.2757L62.3755 75.0572L65.911 71.5217L69.4465 67.9861L60.665 59.2046L57.1295 62.7401ZM51.8925 71.9864L55.428 68.4508C51.1322 64.1551 44.1674 64.1551 39.8717 68.4508L43.4072 71.9864L46.9427 75.5219C47.3332 75.1314 47.9664 75.1314 48.3569 75.5219L51.8925 71.9864ZM43.4072 71.9864L39.8717 68.4508L24.3153 84.0072L27.8508 87.5427L31.3864 91.0783L46.9427 75.5219L43.4072 71.9864ZM27.8508 87.5427L24.3153 84.0072C20.0195 88.303 20.0195 95.2678 24.3153 99.5635L27.8508 96.028L31.3864 92.4925C30.9958 92.102 30.9958 91.4688 31.3864 91.0783L27.8508 87.5427ZM27.8508 96.028L24.3153 99.5635L28.5579 103.806L32.0935 100.271L35.629 96.7351L31.3864 92.4925L27.8508 96.028ZM32.0935 100.271L28.5579 103.806C32.8537 108.102 39.8185 108.102 44.1143 103.806L40.5788 100.271L37.0432 96.7351C36.6527 97.1256 36.0195 97.1256 35.629 96.7351L32.0935 100.271ZM40.5788 100.271L44.1143 103.806L59.6706 88.2498L56.1351 84.7143L52.5996 81.1788L37.0432 96.7351L40.5788 100.271ZM56.1351 84.7143L59.6706 88.2498C63.9664 83.9541 63.9664 76.9893 59.6706 72.6935L56.1351 76.229L52.5996 79.7646C52.9901 80.1551 52.9901 80.7882 52.5996 81.1788L56.1351 84.7143ZM56.1351 76.229L59.6706 72.6935L55.428 68.4508L51.8925 71.9864L48.3569 75.5219L52.5996 79.7646L56.1351 76.229Z" fill="black" mask="url(#path-3-outside-2_764_336)"/>
<rect x="79.7573" y="37.9914" width="15" height="60" rx="6.5" transform="rotate(45 79.7573 37.9914)" fill="white" stroke="black" stroke-width="3"/>
</svg>
