<svg width="482" height="127" viewBox="0 0 482 127" fill="none" xmlns="http://www.w3.org/2000/svg">
<path d="M373 0L430.5 63.5L373 127H15C6.71573 127 2.25505e-07 120.284 0 112V15C2.25505e-07 6.71573 6.71573 3.54342e-07 15 0H373Z" fill="#029A43"/>
<path d="M477.807 59.667L481.71 64.0303L477.776 68.3672L424.596 127H407.045L464.214 63.9688L407 0H424.439L477.807 59.667Z" fill="#029A43"/>
<path d="M451.807 59.667L455.71 64.0303L451.776 68.3672L398.596 127H381.045L438.214 63.9688L381 0H398.439L451.807 59.667Z" fill="#029A43"/>
<path d="M38 13H55V71H38V13Z" fill="#FFF800"/>
<path d="M192 14V37H118V14H192Z" fill="#FFF800"/>
<path d="M192 30V61H172V30H192Z" fill="#FFF800"/>
<path d="M223 15V114H205V15H223Z" fill="#FFF800"/>
<path d="M340 46V114H322V46H340Z" fill="#FFF800"/>
<path d="M250 89V114H220V89H250Z" fill="#FFF800"/>
<path d="M262.29 42.3948L281.443 52.6918L250 114L231.155 100.306L262.29 42.3948Z" fill="#FFF800"/>
<path d="M359.486 13.5001V38.5L340.5 49L296.5 75L287.5 54L336 25.5L349 13.5L359.486 13.5001Z" fill="#FFF800"/>
<path d="M191.955 60.9506L139.5 113L126 96L177.623 47L191.955 60.9506Z" fill="#FFF800"/>
<path d="M85 13H104V83H85V13Z" fill="#FFF800"/>
<path d="M84.9993 69.9998L104 83L81.2327 114.04L60.9995 99.3602L84.9993 69.9998Z" fill="#FFF800"/>
<path d="M46 89H82V114H46V89Z" fill="#FFF800"/>
<path d="M181.925 80L194 94.5L181.925 110.5L169 94.5L181.925 80Z" fill="#FFF800"/>
<path d="M182 91L186 95L182 99L178 95L182 91Z" fill="#029A43"/>
</svg>
