<svg width="415" height="129" viewBox="0 0 415 129" fill="none" xmlns="http://www.w3.org/2000/svg">
<path d="M15.1198 26.3575C10.1559 17.7043 7.67398 13.3776 8.05397 9.82886C8.38542 6.73333 10.0131 3.92322 12.5332 2.09542C15.4224 0 20.4104 0 30.3863 0H332.89C336.657 0 338.54 0 340.22 0.554757C341.706 1.04554 343.071 1.84784 344.222 2.90806C345.524 4.10649 346.439 5.75237 348.27 9.04413L400.45 102.844C405.236 111.448 407.63 115.751 407.22 119.272C406.862 122.344 405.227 125.124 402.716 126.93C399.838 129 394.915 129 385.069 129H84.1941C80.4809 129 78.6244 129 76.9634 128.459C75.4938 127.98 74.1416 127.197 72.9949 126.16C71.699 124.989 70.7752 123.378 68.9276 120.158L15.1198 26.3575Z" fill="url(#paint0_linear_248_191)"/>
<path d="M230.314 45.5287C228.287 44.1286 226.749 42.6474 225.146 41.9114L217.912 56.8975C217.912 56.8975 227.299 64.0584 233.241 68.0994C235.274 69.4323 235.151 69.2747 236.515 70.3333L244.267 54.8304C239.658 51.2848 235.702 49.2508 230.314 45.5287Z" fill="white"/>
<path d="M217.653 92.532C221.341 92.532 227.718 92.532 232.144 92.532C235.145 92.532 246.635 91.4957 246.635 91.4957L255.951 69.732C255.951 69.732 260.604 58.5624 262.162 54.1866L276.653 61.9593C274.764 66.3977 262.162 96.6775 262.162 96.6775L256.986 111.187H248.134H235.594C235.594 111.187 221.603 110.561 218.628 111.187L217.653 92.532Z" fill="white"/>
<path d="M152.323 62C153.212 62.0764 154.348 62.1911 155.73 62.344C157.112 62.4204 158.544 62.4968 160.025 62.5732C161.555 62.6497 162.962 62.6879 164.246 62.6879C165.48 62.6879 167.011 62.6879 168.837 62.6879C170.664 62.6879 172.639 62.6879 174.761 62.6879C176.934 62.6879 179.155 62.6879 181.426 62.6879C183.747 62.6879 186.042 62.6879 188.313 62.6879C190.584 62.6879 192.732 62.6879 194.756 62.6879C196.78 62.6879 198.582 62.6879 200.162 62.6879C201.791 62.6879 203.074 62.6879 204.012 62.6879C205.74 62.6879 207.369 62.6115 208.9 62.4586C210.43 62.2293 211.689 62.0764 212.676 62V80C211.837 79.9236 210.578 79.8089 208.9 79.6561C207.221 79.5032 205.592 79.4268 204.012 79.4268C203.074 79.4268 201.791 79.4268 200.162 79.4268C198.532 79.4268 196.706 79.4268 194.682 79.4268C192.658 79.4268 190.51 79.4268 188.239 79.4268C186.017 79.4268 183.747 79.4268 181.426 79.4268C179.106 79.4268 176.86 79.4268 174.687 79.4268C172.565 79.4268 170.59 79.4268 168.763 79.4268C166.986 79.4268 165.48 79.4268 164.246 79.4268C162.123 79.4268 159.951 79.5032 157.729 79.6561C155.508 79.7325 153.706 79.8471 152.323 80V62Z" fill="white"/>
<path d="M115.201 62.2459L126.153 72.92C126.153 72.92 133.729 80.0408 134.5 80.72L123.544 93.72C119.077 89.3773 115.201 85.4 115.201 85.4L104.762 72.92L115.201 62.2459ZM146.501 41.72L145.457 82.4614L128.239 97.88L108.414 114L100.066 103.6V97.88L111.544 89.04L118.848 82.4614L126.153 76.04L132.413 70.84C132.413 70.84 131.883 60.2325 132.413 57.84L104.762 57.32L107.343 41.72C120.395 41.72 133.448 41.72 146.501 41.72ZM117.806 36L117.284 45.88C117.284 45.88 116.968 48.5126 116.438 49.52C114.436 53.2976 114.605 55.1911 111.544 59.4724C108.483 63.6908 104.414 68.8905 100.588 72.92C96.8201 76.9495 96.4138 77.08 96.4138 77.08L86.501 64.08L91.1966 59.5003C91.1966 59.5003 94.0002 56.6858 96.4138 53.16C97.1112 52.1231 101.631 45.36 101.631 45.36L102.154 36H117.806Z" fill="white"/>
<path d="M289 50.7552C289.155 42.2298 290.629 35.1254 293.422 29.4418C296.293 23.7582 299.939 19.597 304.361 16.9582C308.861 14.3194 313.709 13 318.907 13C324.726 13 329.846 14.5224 334.268 17.5672C338.69 20.6119 342.065 24.7731 344.393 30.0507C346.797 35.2269 348 41.0119 348 47.406C348 52.9881 347.379 57.7582 346.138 61.7164C344.897 65.5731 343.112 69.1254 340.785 72.3731C338.458 75.6209 334.811 80.1373 329.846 85.9224L327.053 89.2716L324.609 92.1642H347.185V115H291.327V97.3403L308.667 76.4836C308.434 76.6866 309.908 74.9104 313.089 71.1552C318.907 64.2537 322.825 59.2806 324.842 56.2358C326.937 53.191 328.023 50.2478 328.101 47.406C328.178 43.3463 327.519 40.403 326.122 38.5761C324.726 36.7492 322.437 35.8358 319.256 35.8358C316.076 35.8358 313.515 37.003 311.576 39.3373C309.714 41.6716 308.783 45.4776 308.783 50.7552H289Z" fill="white"/>
<defs>
<linearGradient id="paint0_linear_248_191" x1="0" y1="64.5" x2="425.401" y2="64.5" gradientUnits="userSpaceOnUse">
<stop stop-color="#043D90"/>
<stop offset="0.543314" stop-color="#05388B"/>
<stop offset="1" stop-color="#043884"/>
</linearGradient>
</defs>
</svg>
