<svg width="415" height="129" viewBox="0 0 415 129" fill="none" xmlns="http://www.w3.org/2000/svg">
<path d="M15.1198 26.3575C10.1559 17.7043 7.67398 13.3776 8.05397 9.82886C8.38542 6.73333 10.0131 3.92322 12.5332 2.09542C15.4224 0 20.4104 0 30.3863 0H332.89C336.657 0 338.54 0 340.22 0.554757C341.706 1.04554 343.071 1.84784 344.222 2.90806C345.524 4.10649 346.439 5.75237 348.27 9.04413L400.45 102.844C405.236 111.448 407.63 115.751 407.22 119.272C406.862 122.344 405.227 125.124 402.716 126.93C399.838 129 394.915 129 385.069 129H84.1941C80.4809 129 78.6244 129 76.9634 128.459C75.4938 127.98 74.1416 127.197 72.9949 126.16C71.699 124.989 70.7752 123.378 68.9276 120.158L15.1198 26.3575Z" fill="url(#paint0_linear_248_190)"/>
<path d="M301.5 41.5L291.5 42.4303V17L299 14H326.995V115H301.181L301.5 41.5Z" fill="white"/>
<path d="M227.661 45.5287C225.634 44.1286 224.096 42.6475 222.493 41.9114L215.259 56.8975C215.259 56.8975 224.646 64.0584 230.588 68.0995C232.621 69.4324 232.498 69.2747 233.862 70.3334L241.614 54.8305C237.006 51.2848 233.049 49.2508 227.661 45.5287Z" fill="white"/>
<path d="M215 93.3455C218.688 93.3455 225.065 93.3455 229.491 93.3455C232.493 93.3455 243.982 92.3091 243.982 92.3091L253.298 70.5455C253.298 70.5455 257.951 59.3758 259.509 55L274 62.7727C272.112 67.2111 259.509 97.4909 259.509 97.4909L254.333 112H245.482H232.942C232.942 112 218.95 111.375 215.976 112L215 93.3455Z" fill="white"/>
<path d="M151 62C151.889 62.0764 153.024 62.1911 154.406 62.344C155.789 62.4204 157.22 62.4968 158.701 62.5732C160.232 62.6497 161.639 62.6879 162.922 62.6879C164.157 62.6879 165.687 62.6879 167.514 62.6879C169.34 62.6879 171.315 62.6879 173.438 62.6879C175.61 62.6879 177.832 62.6879 180.103 62.6879C182.423 62.6879 184.719 62.6879 186.99 62.6879C189.261 62.6879 191.408 62.6879 193.432 62.6879C195.456 62.6879 197.258 62.6879 198.838 62.6879C200.467 62.6879 201.751 62.6879 202.689 62.6879C204.417 62.6879 206.046 62.6115 207.576 62.4586C209.107 62.2293 210.366 62.0764 211.353 62V80C210.514 79.9236 209.255 79.8089 207.576 79.6561C205.898 79.5032 204.269 79.4268 202.689 79.4268C201.751 79.4268 200.467 79.4268 198.838 79.4268C197.209 79.4268 195.382 79.4268 193.358 79.4268C191.334 79.4268 189.186 79.4268 186.916 79.4268C184.694 79.4268 182.423 79.4268 180.103 79.4268C177.782 79.4268 175.536 79.4268 173.364 79.4268C171.241 79.4268 169.266 79.4268 167.44 79.4268C165.662 79.4268 164.157 79.4268 162.922 79.4268C160.8 79.4268 158.627 79.5032 156.406 79.6561C154.184 79.7325 152.382 79.8471 151 80V62Z" fill="white"/>
<path d="M115.201 62.2459L126.153 72.92C126.153 72.92 133.729 80.0408 134.5 80.72L123.544 93.72C119.077 89.3773 115.201 85.4 115.201 85.4L104.762 72.92L115.201 62.2459ZM146.501 41.72L145.457 82.4614L128.239 97.88L108.414 114L100.066 103.6V97.88L111.544 89.04L118.848 82.4614L126.153 76.04L132.413 70.84C132.413 70.84 131.883 60.2325 132.413 57.84L104.762 57.32L107.343 41.72C120.395 41.72 133.448 41.72 146.501 41.72ZM117.806 36L117.284 45.88C117.284 45.88 116.968 48.5126 116.438 49.52C114.436 53.2976 114.605 55.1911 111.544 59.4724C108.483 63.6908 104.414 68.8905 100.588 72.92C96.8201 76.9495 96.4138 77.08 96.4138 77.08L86.501 64.08L91.1966 59.5003C91.1966 59.5003 94.0002 56.6858 96.4138 53.16C97.1112 52.1231 101.631 45.36 101.631 45.36L102.154 36H117.806Z" fill="white"/>
<defs>
<linearGradient id="paint0_linear_248_190" x1="0" y1="64.5" x2="425.401" y2="64.5" gradientUnits="userSpaceOnUse">
<stop stop-color="#043D90"/>
<stop offset="0.543314" stop-color="#05388B"/>
<stop offset="1" stop-color="#043884"/>
</linearGradient>
</defs>
</svg>
